# xmcd CD database file
#
# Track frame offsets:
#	150
#	22935
#	39635
#	67360
#	93298
#	119538
#	159473
#	178465
#	197575
#
# Disc length: 2779 seconds
#
# Revision: 0
# Processed by: cddbd v1.5.1PL0 Copyright (c) Steve Scherf et al.
# Submitted via: CDex 1.51
#
DISCID=7d0ad909
DTITLE=Daevid Allen - Eat Me Baby I'm a Jelly Bean
DYEAR=1998
DGENRE=Jazz
TTITLE0=So What
TTITLE1=Gold Top
TTITLE2=I Can't Get Started
TTITLE3=Slow Boat
TTITLE4=It Ain't Necessarily So
TTITLE5=My Funny Valentine
TTITLE6=Au Privave
TTITLE7=St Petersburg Cafe
TTITLE8=Salt Peanuts
EXTD=YEAR: 1998
EXTT0=
EXTT1=
EXTT2=
EXTT3=
EXTT4=
EXTT5=
EXTT6=
EXTT7=
EXTT8=
PLAYORDER=
